<svg viewBox="0 0 100 100" xmlns="http://www.w3.org/2000/svg">
  <circle cx="50" cy="50" r="48" fill="#2F79A0"/>
  <circle cx="50" cy="50" r="42" fill="none" stroke="white" stroke-width="1.5"/>
  <circle cx="50" cy="50" r="36" fill="none" stroke="white" stroke-width="1"/>
  <g transform="translate(50, 42)">
    <path d="M-12 0 L-10 12 Q-8 18 0 18 Q8 18 10 12 L12 0 Z" fill="white"/>
    <ellipse cx="0" cy="0" rx="14" ry="4" fill="white"/>
    <ellipse cx="0" cy="0" rx="12" ry="3" fill="#2F79A0"/>
    <path d="M-12 2 L-16 2" stroke="white" stroke-width="2.5" stroke-linecap="round"/>
    <path d="M12 2 L16 2" stroke="white" stroke-width="2.5" stroke-linecap="round"/>
    <path d="M-5 -10 Q-7 -14 -5 -18" stroke="white" stroke-width="1.5" fill="none" stroke-linecap="round"/>
    <path d="M0 -10 Q2 -16 0 -20" stroke="white" stroke-width="1.5" fill="none" stroke-linecap="round"/>
    <path d="M5 -10 Q3 -14 5 -18" stroke="white" stroke-width="1.5" fill="none" stroke-linecap="round"/>
  </g>
  <text x="50" y="72" text-anchor="middle" fill="white" font-family="serif" font-size="9" font-weight="600" letter-spacing="1">DFOOD</text>
  <text x="50" y="82" text-anchor="middle" fill="white" font-family="sans-serif" font-size="4.5" font-weight="500" letter-spacing="1.5">FRESHLY COOKED</text>
</svg>
